Coordinates
version=1
nRows=21
nColumns=34
inDegrees=no

Units are S.I. units (second, meters, Newtons, ...)
If the header above contains a line with 'inDegrees', this indicates whether rotational values are in degrees (yes) or radians (no).

endheader
time	pelvis_tilt	pelvis_list	pelvis_rotation	pelvis_tx	pelvis_ty	pelvis_tz	hip_flexion_r	hip_adduction_r	hip_rotation_r	knee_angle_r	ankle_angle_r	subtalar_angle_r	mtp_angle_r	hip_flexion_l	hip_adduction_l	hip_rotation_l	knee_angle_l	ankle_angle_l	subtalar_angle_l	mtp_angle_l	lumbar_extension	lumbar_bending	lumbar_rotation	arm_flex_r	arm_add_r	arm_rot_r	elbow_flex_r	pro_sup_r	arm_flex_l	arm_add_l	arm_rot_l	elbow_flex_l	pro_sup_l
0.45	-0.0838937	-0.0730025	-0.0293554	0.417201	0.922272	-0.221264	-0.0549244	0.113766	-0.425866	0.219519	0.480536	0.468159	-0.00345372	0.668342	-0.0988211	-0.096593	0.411197	0.20354	0.196038	-0.0105309	-0.00593448	0.0891093	0.104794	0.116295	-0.248871	-0.0995703	0.927797	1.66022	-0.25068	-0.0739685	-0.411587	0.419117	1.90208
0.46	-0.0831075	-0.0675364	-0.0327125	0.429037	0.920322	-0.221467	-0.0674685	0.102676	-0.440144	0.229507	0.49527	0.483437	-0.00348087	0.659353	-0.090545	-0.122548	0.35476	0.212752	0.250578	-0.0105037	-0.0071424	0.0844124	0.111231	0.120208	-0.252883	-0.09686	0.940072	1.66033	-0.25501	-0.074311	-0.414071	0.408531	1.90066
0.47	-0.081936	-0.0614398	-0.036279	0.441078	0.918403	-0.221692	-0.0800732	0.0907561	-0.451888	0.240198	0.508428	0.493214	-0.00350802	0.649067	-0.0812393	-0.149248	0.303166	0.221961	0.298981	-0.0104764	-0.00854024	0.0789027	0.117644	0.123194	-0.256309	-0.0945202	0.950982	1.66018	-0.258949	-0.0747744	-0.416552	0.398322	1.8993
0.48	-0.080193	-0.0546881	-0.0400072	0.453357	0.916557	-0.221929	-0.0931607	0.0780516	-0.461358	0.251139	0.51967	0.498672	-0.00353517	0.637617	-0.0710122	-0.175808	0.257797	0.231204	0.339579	-0.010449	-0.010208	0.0725032	0.123886	0.125177	-0.259003	-0.0925436	0.960392	1.65996	-0.262666	-0.0753228	-0.419224	0.388808	1.89785
0.49	-0.0777274	-0.0472941	-0.0438557	0.465906	0.914817	-0.222166	-0.107121	0.0646507	-0.468906	0.261864	0.528679	0.501256	-0.00356233	0.625213	-0.0600904	-0.201325	0.219966	0.240336	0.37121	-0.0104217	-0.0121681	0.0651873	0.12982	0.126067	-0.260834	-0.0909184	0.96819	1.65979	-0.266351	-0.0759142	-0.422295	0.380286	1.89629
0.5	-0.0744639	-0.0393008	-0.0477898	0.47875	0.913208	-0.222389	-0.122241	0.0506737	-0.474874	0.271944	0.535177	0.502431	-0.00358949	0.612141	-0.0487667	-0.224942	0.190726	0.248955	0.393246	-0.0103944	-0.0143548	0.0569726	0.135319	0.125759	-0.2617	-0.0896261	0.974282	1.65973	-0.270195	-0.076505	-0.425973	0.373006	1.89464
0.51	-0.0704354	-0.030771	-0.0517777	0.491907	0.911737	-0.22259	-0.138639	0.0362395	-0.47954	0.281047	0.538943	0.503493	-0.00361665	0.598741	-0.0373199	-0.245889	0.170667	0.25635	0.405548	-0.0103671	-0.0166015	0.0478986	0.140281	0.124155	-0.261531	-0.0886408	0.97858	1.65981	-0.274364	-0.0770549	-0.430444	0.367134	1.89298
0.52	-0.0658511	-0.021758	-0.055776	0.505386	0.910394	-0.222765	-0.156233	0.0214378	-0.483091	0.288993	0.539831	0.505427	-0.00364381	0.585382	-0.0259425	-0.263506	0.159785	0.261519	0.408372	-0.0103397	-0.0186667	0.0380149	0.144622	0.121177	-0.260297	-0.0879309	0.98099	1.66003	-0.278979	-0.0775309	-0.435843	0.362739	1.89145
0.53	-0.0609327	-0.0122499	-0.0597218	0.519185	0.909209	-0.222927	-0.174702	0.00630983	-0.485611	0.295797	0.537777	0.508801	-0.00367098	0.572463	-0.0146944	-0.277272	0.157444	0.263278	0.402272	-0.0103124	-0.0201999	0.0273804	0.148274	0.116782	-0.258008	-0.0874638	0.981406	1.6604	-0.28409	-0.077911	-0.442224	0.359779	1.89018
0.54	-0.0560207	-0.0022229	-0.063534	0.533289	0.908177	-0.223088	-0.193537	-0.0091832	-0.487089	0.301698	0.532786	0.513685	-0.00369815	0.560361	-0.00346599	-0.286847	0.162468	0.26046	0.388034	-0.010285	-0.0208507	0.016016	0.15118	0.110975	-0.254706	-0.0872154	0.979716	1.66091	-0.28966	-0.0781901	-0.449534	0.358113	1.8893
0.55	-0.0514588	0.00838383	-0.0671053	0.547666	0.907291	-0.223269	-0.212085	-0.0251522	-0.487409	0.307165	0.524897	0.519587	-0.00372532	0.549399	0.00799	-0.292122	0.173322	0.252179	0.366642	-0.0102576	-0.0203125	0.0039075	0.153289	0.103809	-0.250455	-0.0871805	0.975806	1.66159	-0.295557	-0.0783843	-0.4576	0.357517	1.88892
0.56	-0.0475395	0.0196519	-0.0703059	0.562275	0.906549	-0.223492	-0.229623	-0.0417476	-0.486345	0.31287	0.514125	0.525402	-0.0037525	0.539811	0.0199935	-0.293256	0.188354	0.238092	0.339267	-0.0102303	-0.01839	-0.00898789	0.15456	0.0953926	-0.245325	-0.0873817	0.969573	1.66248	-0.301562	-0.0785332	-0.466141	0.357719	1.88907
0.57	-0.0444515	0.0316565	-0.0729992	0.577064	0.90596	-0.223778	-0.245429	-0.059106	-0.483533	0.319639	0.50038	0.529428	-0.00377968	0.53171	0.0328504	-0.290678	0.206031	0.218599	0.307239	-0.0102029	-0.0150492	-0.0227182	0.154966	0.085874	-0.239382	-0.0878735	0.960942	1.66363	-0.307384	-0.0786962	-0.474805	0.358443	1.88975
0.58	-0.0422628	0.0444221	-0.0750631	0.591972	0.905541	-0.224145	-0.258825	-0.0772788	-0.478459	0.328395	0.483395	0.529444	-0.00380686	0.525067	0.0467642	-0.285009	0.225102	0.194901	0.271987	-0.0101755	-0.0104196	-0.0372943	0.154499	0.0754301	-0.232682	-0.0887381	0.94988	1.66514	-0.312693	-0.0789428	-0.483228	0.35946	1.89088
0.59	-0.0409479	0.057877	-0.0764148	0.606936	0.90532	-0.224599	-0.269181	-0.0961771	-0.470486	0.340097	0.462684	0.522916	-0.00383404	0.519726	0.0617771	-0.276946	0.244658	0.168872	0.234932	-0.0101481	-0.0047549	-0.052647	0.153181	0.0642427	-0.225279	-0.0900743	0.936409	1.66705	-0.31716	-0.079338	-0.491089	0.360614	1.89238
0.6	-0.0404326	0.0718374	-0.0770326	0.62189	0.905323	-0.225136	-0.275902	-0.115555	-0.458926	0.355693	0.437542	0.507329	-0.00386122	0.515415	0.0777547	-0.267133	0.264075	0.14279	0.197379	-0.0101208	0.00163844	-0.0685996	0.151076	0.0524765	-0.217228	-0.0919801	0.920621	1.66941	-0.320502	-0.0799279	-0.498156	0.36185	1.89413
0.61	-0.0406315	0.0860291	-0.0769774	0.636778	0.905573	-0.225742	-0.27841	-0.135043	-0.443169	0.376066	0.407113	0.480616	-0.00388841	0.511769	0.0944106	-0.256113	0.28289	0.118966	0.160477	-0.0100934	0.00847697	-0.0848696	0.1483	0.0402633	-0.208604	-0.0945309	0.902674	1.67221	-0.322511	-0.0807313	-0.504291	0.363211	1.89606
0.62	-0.0414697	0.100136	-0.0764108	0.651551	0.906083	-0.226394	-0.276159	-0.154222	-0.422817	0.401981	0.370507	0.441611	-0.00391561	0.508353	0.111363	-0.244356	0.30066	0.0993896	0.125242	-0.010066	0.0155495	-0.101106	0.14504	0.0276985	-0.199512	-0.0977565	0.882795	1.67534	-0.323083	-0.0817378	-0.509435	0.364825	1.89817
0.63	-0.0428852	0.113859	-0.0756064	0.666172	0.906855	-0.227062	-0.268678	-0.172705	-0.397778	0.434017	0.32698	0.390328	-0.00394281	0.504665	0.128199	-0.232362	0.316866	0.0854537	0.0926354	-0.0100386	0.0227296	-0.116951	0.141553	0.0148505	-0.190091	-0.101618	0.861271	1.67857	-0.322225	-0.0829142	-0.513574	0.366884	1.90047
0.64	-0.0448108	0.126964	-0.074945	0.680611	0.907877	-0.227707	-0.255628	-0.190206	-0.368264	0.472481	0.276144	0.327982	-0.00397001	0.500171	0.144529	-0.220759	0.330877	0.0778234	0.0636298	-0.0100112	0.0299588	-0.132097	0.138162	0.00178043	-0.180518	-0.105989	0.838425	1.68158	-0.320045	-0.0842146	-0.516699	0.369615	1.90304
0.65	-0.0471478	0.139325	-0.0748842	0.69485	0.909126	-0.22829	-0.236864	-0.20657	-0.334755	0.517349	0.218191	0.256846	-0.00399722	0.49434	0.160034	-0.210338	0.341999	0.0764443	0.0392084	-0.00998381	0.0372134	-0.146338	0.135227	-0.0114354	-0.171006	-0.11065	0.814604	1.68392	-0.316725	-0.085592	-0.518781	0.373263	1.90594
